#Comment line ignore any data following # character 
#Hierarchical Translation and Rotation (.htr) file 
[Header]	
#Header keywords are followed by a single value 
FileType HTR		#Single word string
DataType HTRS		#Translation followed by rotation and scale data
FileVersion 1		#integer
NumSegments 84		#integer
NumFrames 2		#integer
DataFrameRate 30		#integer, data frame rate in this file
EulerRotationOrder ZYX
CalibrationUnits mm
RotationUnits Degrees
GlobalAxisofGravity Y
BoneLengthAxis Y
ScaleFactor 1.00
[SegmentNames&Hierarchy]
#CHILD	PARENT
MASTER GLOBAL
root MASTER
chest root
L_mid_tent01 root
R_mid_tent01 root
spine01 root
Bip01_Neck chest
L_humerus chest
R_humerus chest
weapon_bone chest
Bip01_Head Bip01_Neck
eye_left_bone Bip01_Head
eye_right_bone Bip01_Head
L_forearm L_humerus
L_front_hand L_forearm
L_weapon_bone L_forearm
L_front_hand01_01 L_front_hand
L_front_hand02_01 L_front_hand
L_front_hand03_01 L_front_hand
L_front_hand01_02 L_front_hand01_01
L_front_hand02_02 L_front_hand02_01
L_front_hand03_02 L_front_hand03_01
R_forearm R_humerus
R_front_hand R_forearm
R_weapon_bone R_forearm
R_front_hand01_01 R_front_hand
R_front_hand02_01 R_front_hand
R_front_hand03_01 R_front_hand
R_front_hand01_02 R_front_hand01_01
R_front_hand02_02 R_front_hand02_01
R_front_hand03_02 R_front_hand03_01
null_rope01_connect L_mid_tent01
Rope1_Seg01 null_rope01_connect
Rope1_Seg02 Rope1_Seg01
Rope1_Seg03 Rope1_Seg02
Rope1_Seg04 Rope1_Seg03
Rope1_Seg05 Rope1_Seg04
Rope1_Seg06 Rope1_Seg05
Rope1_Seg07 Rope1_Seg06
Rope1_Seg09 Rope1_Seg07
L_mid_hand01 Rope1_Seg09
L_mid_hand02 Rope1_Seg09
L_mid_hand03 Rope1_Seg09
null_rope02_connect R_mid_tent01
Rope2_Seg01 null_rope02_connect
Rope2_Seg02 Rope2_Seg01
Rope2_Seg03 Rope2_Seg02
Rope2_Seg04 Rope2_Seg03
Rope2_Seg05 Rope2_Seg04
Rope2_Seg06 Rope2_Seg05
Rope2_Seg07 Rope2_Seg06
Rope2_Seg09 Rope2_Seg07
R_mid_hand01 Rope2_Seg09
R_mid_hand02 Rope2_Seg09
R_mid_hand03 Rope2_Seg09
spine02 spine01
spine03 spine02
pelvis spine03
null_rope03_connect pelvis
null_rope04_connect pelvis
Rope3_Seg01 null_rope03_connect
Rope3_Seg02 Rope3_Seg01
Rope3_Seg03 Rope3_Seg02
Rope3_Seg04 Rope3_Seg03
Rope3_Seg05 Rope3_Seg04
Rope3_Seg06 Rope3_Seg05
Rope3_Seg07 Rope3_Seg06
Rope3_Seg08 Rope3_Seg07
Rope3_Seg09 Rope3_Seg08
R_rear_hand01 Rope3_Seg09
R_rear_hand02 Rope3_Seg09
R_rear_hand03 Rope3_Seg09
Rope4_Seg01 null_rope04_connect
Rope4_Seg02 Rope4_Seg01
Rope4_Seg03 Rope4_Seg02
Rope4_Seg04 Rope4_Seg03
Rope4_Seg05 Rope4_Seg04
Rope4_Seg06 Rope4_Seg05
Rope4_Seg07 Rope4_Seg06
Rope4_Seg08 Rope4_Seg07
Rope4_Seg09 Rope4_Seg08
L_rear_hand01 Rope4_Seg09
L_rear_hand02 Rope4_Seg09
L_rear_hand03 Rope4_Seg09
[BasePosition]
#SegmentName Tx, Ty, Tz, Rx, Ry, Rz, BoneLength
MASTER 0.000000 0.000000 0.000000 -90.000000 0.000000 0.000000 10.000000 
root 0.000000 0.000000 0.000000 0.000000 0.000000 0.000000 10.000000 
chest 0.000000 0.000000 0.000000 0.000000 0.000000 0.000000 10.000000 
L_mid_tent01 0.000000 0.000000 0.000000 0.000000 0.000000 0.000000 10.000000 
R_mid_tent01 0.000000 0.000000 0.000000 0.000000 0.000000 0.000000 10.000000 
spine01 0.000000 0.000000 0.000000 0.000000 0.000000 0.000000 10.000000 
Bip01_Neck 0.000000 0.000000 0.000000 0.000000 0.000000 0.000000 10.000000 
L_humerus 0.000000 0.000000 0.000000 0.000000 0.000000 0.000000 10.000000 
R_humerus 0.000000 0.000000 0.000000 0.000000 0.000000 0.000000 10.000000 
weapon_bone 0.000000 0.000000 0.000000 0.000000 0.000000 0.000000 10.000000 
Bip01_Head 0.000000 0.000000 0.000000 0.000000 0.000000 0.000000 10.000000 
eye_left_bone 0.000000 0.000000 0.000000 0.000000 0.000000 0.000000 10.000000 
eye_right_bone 0.000000 0.000000 0.000000 0.000000 0.000000 0.000000 10.000000 
L_forearm 0.000000 0.000000 0.000000 0.000000 0.000000 0.000000 10.000000 
L_front_hand 0.000000 0.000000 0.000000 0.000000 0.000000 0.000000 10.000000 
L_weapon_bone 0.000000 0.000000 0.000000 0.000000 0.000000 0.000000 10.000000 
L_front_hand01_01 0.000000 0.000000 0.000000 0.000000 0.000000 0.000000 10.000000 
L_front_hand02_01 0.000000 0.000000 0.000000 0.000000 0.000000 0.000000 10.000000 
L_front_hand03_01 0.000000 0.000000 0.000000 0.000000 0.000000 0.000000 10.000000 
L_front_hand01_02 0.000000 0.000000 0.000000 0.000000 0.000000 0.000000 10.000000 
L_front_hand02_02 0.000000 0.000000 0.000000 0.000000 0.000000 0.000000 10.000000 
L_front_hand03_02 0.000000 0.000000 0.000000 0.000000 0.000000 0.000000 10.000000 
R_forearm 0.000000 0.000000 0.000000 0.000000 0.000000 0.000000 10.000000 
R_front_hand 0.000000 0.000000 0.000000 0.000000 0.000000 0.000000 10.000000 
R_weapon_bone 0.000000 0.000000 0.000000 0.000000 0.000000 0.000000 10.000000 
R_front_hand01_01 0.000000 0.000000 0.000000 0.000000 0.000000 0.000000 10.000000 
R_front_hand02_01 0.000000 0.000000 0.000000 0.000000 0.000000 0.000000 10.000000 
R_front_hand03_01 0.000000 0.000000 0.000000 0.000000 0.000000 0.000000 10.000000 
R_front_hand01_02 0.000000 0.000000 0.000000 0.000000 0.000000 0.000000 10.000000 
R_front_hand02_02 0.000000 0.000000 0.000000 0.000000 0.000000 0.000000 10.000000 
R_front_hand03_02 0.000000 0.000000 0.000000 0.000000 0.000000 0.000000 10.000000 
null_rope01_connect 0.000000 0.000000 0.000000 0.000000 0.000000 0.000000 10.000000 
Rope1_Seg01 0.000000 0.000000 0.000000 0.000000 0.000000 0.000000 10.000000 
Rope1_Seg02 0.000000 0.000000 0.000000 0.000000 0.000000 0.000000 10.000000 
Rope1_Seg03 0.000000 0.000000 0.000000 0.000000 0.000000 0.000000 10.000000 
Rope1_Seg04 0.000000 0.000000 0.000000 0.000000 0.000000 0.000000 10.000000 
Rope1_Seg05 0.000000 0.000000 0.000000 0.000000 0.000000 0.000000 10.000000 
Rope1_Seg06 0.000000 0.000000 0.000000 0.000000 0.000000 0.000000 10.000000 
Rope1_Seg07 0.000000 0.000000 0.000000 0.000000 0.000000 0.000000 10.000000 
Rope1_Seg09 0.000000 0.000000 0.000000 0.000000 0.000000 0.000000 10.000000 
L_mid_hand01 0.000000 0.000000 0.000000 0.000000 0.000000 0.000000 10.000000 
L_mid_hand02 0.000000 0.000000 0.000000 0.000000 0.000000 0.000000 10.000000 
L_mid_hand03 0.000000 0.000000 0.000000 0.000000 0.000000 0.000000 10.000000 
null_rope02_connect 0.000000 0.000000 0.000000 0.000000 0.000000 0.000000 10.000000 
Rope2_Seg01 0.000000 0.000000 0.000000 0.000000 0.000000 0.000000 10.000000 
Rope2_Seg02 0.000000 0.000000 0.000000 0.000000 0.000000 0.000000 10.000000 
Rope2_Seg03 0.000000 0.000000 0.000000 0.000000 0.000000 0.000000 10.000000 
Rope2_Seg04 0.000000 0.000000 0.000000 0.000000 0.000000 0.000000 10.000000 
Rope2_Seg05 0.000000 0.000000 0.000000 0.000000 0.000000 0.000000 10.000000 
Rope2_Seg06 0.000000 0.000000 0.000000 0.000000 0.000000 0.000000 10.000000 
Rope2_Seg07 0.000000 0.000000 0.000000 0.000000 0.000000 0.000000 10.000000 
Rope2_Seg09 0.000000 0.000000 0.000000 0.000000 0.000000 0.000000 10.000000 
R_mid_hand01 0.000000 0.000000 0.000000 0.000000 0.000000 0.000000 10.000000 
R_mid_hand02 0.000000 0.000000 0.000000 0.000000 0.000000 0.000000 10.000000 
R_mid_hand03 0.000000 0.000000 0.000000 0.000000 0.000000 0.000000 10.000000 
spine02 0.000000 0.000000 0.000000 0.000000 0.000000 0.000000 10.000000 
spine03 0.000000 0.000000 0.000000 0.000000 0.000000 0.000000 10.000000 
pelvis 0.000000 0.000000 0.000000 0.000000 0.000000 0.000000 10.000000 
null_rope03_connect 0.000000 0.000000 0.000000 0.000000 0.000000 0.000000 10.000000 
null_rope04_connect 0.000000 0.000000 0.000000 0.000000 0.000000 0.000000 10.000000 
Rope3_Seg01 0.000000 0.000000 0.000000 0.000000 0.000000 0.000000 10.000000 
Rope3_Seg02 0.000000 0.000000 0.000000 0.000000 0.000000 0.000000 10.000000 
Rope3_Seg03 0.000000 0.000000 0.000000 0.000000 0.000000 0.000000 10.000000 
Rope3_Seg04 0.000000 0.000000 0.000000 0.000000 0.000000 0.000000 10.000000 
Rope3_Seg05 0.000000 0.000000 0.000000 0.000000 0.000000 0.000000 10.000000 
Rope3_Seg06 0.000000 0.000000 0.000000 0.000000 0.000000 0.000000 10.000000 
Rope3_Seg07 0.000000 0.000000 0.000000 0.000000 0.000000 0.000000 10.000000 
Rope3_Seg08 0.000000 0.000000 0.000000 0.000000 0.000000 0.000000 10.000000 
Rope3_Seg09 0.000000 0.000000 0.000000 0.000000 0.000000 0.000000 10.000000 
R_rear_hand01 0.000000 0.000000 0.000000 0.000000 0.000000 0.000000 10.000000 
R_rear_hand02 0.000000 0.000000 0.000000 0.000000 0.000000 0.000000 10.000000 
R_rear_hand03 0.000000 0.000000 0.000000 0.000000 0.000000 0.000000 10.000000 
Rope4_Seg01 0.000000 0.000000 0.000000 0.000000 0.000000 0.000000 10.000000 
Rope4_Seg02 0.000000 0.000000 0.000000 0.000000 0.000000 0.000000 10.000000 
Rope4_Seg03 0.000000 0.000000 0.000000 0.000000 0.000000 0.000000 10.000000 
Rope4_Seg04 0.000000 0.000000 0.000000 0.000000 0.000000 0.000000 10.000000 
Rope4_Seg05 0.000000 0.000000 0.000000 0.000000 0.000000 0.000000 10.000000 
Rope4_Seg06 0.000000 0.000000 0.000000 0.000000 0.000000 0.000000 10.000000 
Rope4_Seg07 0.000000 0.000000 0.000000 0.000000 0.000000 0.000000 10.000000 
Rope4_Seg08 0.000000 0.000000 0.000000 0.000000 0.000000 0.000000 10.000000 
Rope4_Seg09 0.000000 0.000000 0.000000 0.000000 0.000000 0.000000 10.000000 
L_rear_hand01 0.000000 0.000000 0.000000 0.000000 0.000000 0.000000 10.000000 
L_rear_hand02 0.000000 0.000000 0.000000 0.000000 0.000000 0.000000 10.000000 
L_rear_hand03 0.000000 0.000000 0.000000 0.000000 0.000000 0.000000 10.000000 
#Beginning of Data. Separated by tabs
#Fr	Tx	Ty	Tz	Rx	Ry	Rz	SF
[MASTER]
36 6277.282227 8872.358398 -143.250031 0.001660 0.001660 0.001660 10869.385742
37 6427.814453 9117.539063 -141.046524 0.001660 0.001660 0.001660 11156.442383
[root]
36 -16.500854 -39.983692 1483.185059 -91.657944 -22.583801 -89.834457 1483.815552
37 -16.500549 -26.731514 1473.789551 -91.678131 -19.629181 -89.730118 1474.124268
[chest]
36 -84.512650 -34.090519 0.000000 -8.039558 11.439641 163.763977 91.129311
37 -84.512650 -34.090519 0.000000 -6.809309 9.220616 164.745407 91.129311
[L_mid_tent01]
36 27.297577 22.178993 -249.919342 -15.423594 24.458792 36.784252 252.382141
37 27.297535 22.178986 -249.919357 -16.945263 22.157063 31.773903 252.382156
[R_mid_tent01]
36 23.228794 24.509907 226.238495 -173.425674 -34.265636 46.305523 228.744751
37 23.228794 24.509907 226.238495 -171.029022 -31.113056 41.177696 228.744751
[spine01]
36 -0.361383 -0.195265 0.000000 0.001968 0.001279 23.978539 0.410763
37 -0.361383 -0.195265 0.000000 0.001964 0.001286 23.555357 0.410763
[Bip01_Neck]
36 165.484543 71.581718 0.000119 176.643677 -1.657967 43.431911 180.302734
37 165.484543 71.581718 0.000119 176.643677 -1.657967 43.431911 180.302734
[L_humerus]
36 -13.983130 -135.272980 -120.471481 -5.671669 68.382523 84.358833 181.680161
37 -13.983130 -135.272980 -120.471481 -5.604102 68.550430 84.434753 181.680161
[R_humerus]
36 -13.983309 -135.273102 125.287651 27.613773 -69.383003 68.040710 184.909012
37 -13.983309 -135.273102 125.287651 27.711166 -69.553841 67.940948 184.909012
[weapon_bone]
36 235.964890 -300.705902 0.000000 0.000000 -89.951546 -128.212341 382.234833
37 235.964890 -300.705902 0.000000 0.000000 -89.951546 -128.212341 382.234833
[Bip01_Head]
36 213.328369 186.042053 7.558918 5.200446 6.151311 -43.834991 283.156799
37 213.328461 186.042007 7.558975 5.200446 6.151311 -43.834991 283.156860
[eye_left_bone]
36 -24.626970 125.451866 -64.772606 0.000000 -90.000000 -99.840431 143.318359
37 -24.626970 125.451866 -64.772606 0.000000 -90.000000 -99.840431 143.318359
[eye_right_bone]
36 -24.626970 125.451866 64.327362 0.000000 -89.965736 80.156380 143.117676
37 -24.626970 125.451866 64.327362 0.000000 -89.965736 80.156380 143.117676
[L_forearm]
36 322.776093 0.000000 -0.000119 0.000399 -0.002313 -109.593559 322.776093
37 322.776093 0.000000 -0.000119 0.000398 -0.002313 -109.537056 322.776093
[L_front_hand]
36 241.149185 -0.042021 -3.300071 -178.667953 -1.835447 -27.422350 241.171753
37 241.149185 -0.042021 -3.300071 -178.667953 -1.835447 -27.422342 241.171753
[L_weapon_bone]
36 156.183838 0.000000 0.000000 0.000014 0.000007 0.000001 156.183838
37 156.183838 0.000000 0.000000 0.000014 0.000007 0.000001 156.183838
[L_front_hand01_01]
36 86.095154 20.947098 -0.655860 -0.366594 -0.477154 75.385574 88.609184
37 86.095154 20.947098 -0.655860 -0.366594 -0.477154 75.385574 88.609184
[L_front_hand02_01]
36 86.935165 -11.437475 24.513514 154.399796 -59.883835 -61.369587 91.046425
37 86.935165 -11.437475 24.513514 154.399796 -59.883835 -61.369587 91.046425
[L_front_hand03_01]
36 86.637497 -14.123976 -20.424902 -153.913849 58.118130 -62.702866 90.126129
37 86.637497 -14.123976 -20.424902 -153.913849 58.118122 -62.702866 90.126129
[L_front_hand01_02]
36 71.020905 -0.000179 0.000030 0.000332 -0.002324 -106.274635 71.020905
37 71.020905 -0.000179 0.000030 0.000333 -0.002323 -106.308632 71.020905
[L_front_hand02_02]
36 71.020927 -0.000119 0.000060 0.000332 -0.002324 -106.274635 71.020927
37 71.020927 -0.000119 0.000060 0.000333 -0.002323 -106.308632 71.020927
[L_front_hand03_02]
36 71.020905 -0.000060 0.000060 0.000332 -0.002324 -106.274635 71.020905
37 71.020905 -0.000060 0.000060 0.000333 -0.002323 -106.308632 71.020905
[R_forearm]
36 322.776428 -0.000060 0.000030 0.202002 0.065470 -108.239906 322.776428
37 322.776428 -0.000060 0.000030 0.202033 0.065373 -108.184967 322.776428
[R_front_hand]
36 238.847015 -0.006795 2.210259 -2.635298 -10.645461 -26.312506 238.857239
37 238.847015 -0.006795 2.210259 -2.635298 -10.645461 -26.312506 238.857239
[R_weapon_bone]
36 155.664093 0.002503 -0.000030 0.003487 0.001180 -90.988930 155.664078
37 155.664093 0.002503 -0.000030 0.003487 0.001180 -90.988930 155.664078
[R_front_hand01_01]
36 87.624611 14.231146 22.918642 -154.633484 -59.950619 61.746037 91.683487
37 87.624611 14.231146 22.918642 -154.633484 -59.950619 61.746037 91.683487
[R_front_hand02_01]
36 89.356956 14.367283 -19.491137 154.602661 58.302849 63.744389 92.579636
37 89.356956 14.367283 -19.491137 154.602661 58.302849 63.744389 92.579636
[R_front_hand03_01]
36 87.286232 -22.307278 -0.143439 0.162155 -0.423168 -75.767921 90.091743
37 87.286232 -22.307278 -0.143439 0.162155 -0.423168 -75.767921 90.091743
[R_front_hand01_02]
36 71.020905 0.000060 0.000119 0.002323 -0.000334 106.381714 71.020905
37 71.020905 0.000060 0.000119 0.002323 -0.000334 106.381714 71.020905
[R_front_hand02_02]
36 71.020844 -0.000030 -0.000119 0.002323 -0.000334 106.381714 71.020836
37 71.020844 -0.000030 -0.000119 0.002323 -0.000334 106.381714 71.020836
[R_front_hand03_02]
36 71.020905 0.000000 0.000030 0.002323 -0.000334 106.381714 71.020905
37 71.020905 0.000000 0.000030 0.002323 -0.000334 106.381714 71.020905
[null_rope01_connect]
36 328.732483 0.000000 -0.000238 -139.053940 -59.879005 -148.337357 328.732483
37 328.732483 0.000000 -0.000238 -142.465790 -60.952103 -142.828537 328.732483
[Rope1_Seg01]
36 -0.000033 0.000005 0.000134 63.256016 -23.169575 -132.489563 0.000138
37 -0.000034 0.000004 0.000137 56.644180 -18.679607 -126.413788 0.000142
[Rope1_Seg02]
36 139.999863 -0.000179 0.000000 -5.687044 9.929184 -3.992478 139.999863
37 139.999863 -0.000179 0.000000 -6.761492 8.662193 -2.006599 139.999863
[Rope1_Seg03]
36 139.999924 0.000060 -0.000060 -14.985697 14.138012 -3.108604 139.999924
37 139.999924 0.000060 -0.000060 -12.303555 10.775176 -1.697706 139.999924
[Rope1_Seg04]
36 139.999924 -0.000060 -0.000119 175.717346 70.203873 -67.955406 139.999924
37 139.999924 -0.000060 -0.000119 -25.392519 13.172381 2.815466 139.999924
[Rope1_Seg05]
36 139.999832 0.000119 -0.000060 -10.719904 -18.992123 49.384007 139.999832
37 139.999832 0.000119 -0.000060 -41.556038 20.379293 19.762569 139.999832
[Rope1_Seg06]
36 139.999954 0.000119 -0.000060 0.001649 -0.023086 0.046191 139.999954
37 139.999954 0.000119 -0.000060 -13.035644 1.263863 21.262798 139.999954
[Rope1_Seg07]
36 139.999985 0.000060 0.000000 0.006605 0.001659 0.001660 139.999985
37 139.999985 0.000060 0.000000 -0.645751 -0.295373 1.709651 139.999985
[Rope1_Seg09]
36 121.602913 0.000119 -0.000089 -89.793175 -1.359789 0.847147 121.602913
37 121.602913 0.000119 -0.000089 -89.793175 -1.359789 0.847147 121.602913
[L_mid_hand01]
36 103.859421 1.038730 8.195221 130.544373 -67.584534 -38.866943 104.187431
37 103.859421 1.038730 8.195221 130.544373 -67.584534 -38.866943 104.187431
[L_mid_hand02]
36 105.572853 -4.139662 -10.864139 -168.923172 43.409309 -73.498886 106.211075
37 105.572853 -4.139662 -10.864139 -168.923172 43.409309 -73.498886 106.211075
[L_mid_hand03]
36 104.641464 17.579376 -3.913581 -6.012627 17.808174 74.893669 106.179977
37 104.641464 17.579376 -3.913581 -6.012626 17.808172 74.893661 106.179977
[null_rope02_connect]
36 328.732849 0.000179 -0.000119 -123.817764 56.441322 -7.764279 328.732849
37 328.732849 0.000179 -0.000119 -126.792671 58.936527 -12.440998 328.732849
[Rope2_Seg01]
36 0.000072 0.000019 0.000000 -67.506966 19.469505 -31.693676 0.000074
37 0.000072 0.000015 0.000000 -54.838093 17.502592 -34.321236 0.000074
[Rope2_Seg02]
36 139.999741 -0.000060 -0.000119 -31.048084 2.872526 5.337137 139.999756
37 139.999741 -0.000060 -0.000119 -34.573105 4.703479 0.973778 139.999756
[Rope2_Seg03]
36 140.000107 0.000030 0.000000 -25.148970 1.752071 5.659566 140.000107
37 140.000107 0.000030 0.000000 -74.007912 5.115899 2.157895 140.000107
[Rope2_Seg04]
36 139.999802 0.000000 -0.000060 -12.582742 -6.425200 8.485864 139.999802
37 139.999802 0.000000 -0.000060 -9.621017 -6.838113 5.392149 139.999802
[Rope2_Seg05]
36 139.999985 -0.000060 0.000119 2.783046 -19.751598 5.646263 139.999985
37 139.999985 -0.000060 0.000119 13.970182 -16.571619 -0.345981 139.999985
[Rope2_Seg06]
36 139.999893 -0.000030 -0.000119 -0.006394 -9.708857 3.894327 139.999893
37 139.999893 -0.000030 -0.000119 1.334865 -9.753127 3.055216 139.999893
[Rope2_Seg07]
36 139.999893 0.000060 -0.000060 -0.070804 -5.648328 2.372231 139.999893
37 139.999893 0.000060 -0.000060 0.398109 -5.274377 1.820217 139.999893
[Rope2_Seg09]
36 121.338966 0.000089 -0.000060 33.793236 -1.359788 -0.847141 121.338966
37 121.338966 0.000089 -0.000060 33.793236 -1.359788 -0.847141 121.338966
[R_mid_hand01]
36 104.680779 11.144459 -10.335981 -16.212059 45.237240 70.462852 105.778534
37 104.680779 11.144459 -10.335981 -16.212063 45.237247 70.462852 105.778534
[R_mid_hand02]
36 104.070427 2.443552 8.231699 49.067368 -67.749771 39.286453 104.424065
37 104.070427 2.443552 8.231699 49.067368 -67.749771 39.286453 104.424065
[R_mid_hand03]
36 106.028137 -11.221827 -5.996406 -177.101105 15.551026 -76.585571 106.788818
37 106.028137 -11.221827 -5.996406 -177.101105 15.551026 -76.585571 106.788818
[spine02]
36 129.756927 0.001550 0.000119 0.376072 -4.043172 -13.159690 129.756927
37 129.756927 0.001550 0.000119 0.370442 -4.043746 -13.069825 129.756927
[spine03]
36 78.613922 0.081654 -4.898722 1.905061 3.828187 16.631649 78.766441
37 78.613914 0.081650 -4.898714 1.901699 3.829284 16.579878 78.766434
[pelvis]
36 169.435242 0.051022 0.000000 -0.060943 -0.180064 14.391958 169.435257
37 169.435242 0.051022 0.000000 -0.060794 -0.180115 14.297258 169.435257
[null_rope03_connect]
36 -1.257226 -2.466202 137.391083 0.000000 -89.529778 70.769157 137.418976
37 -1.257226 -2.466202 137.391083 0.000000 -89.538605 68.304619 137.418976
[null_rope04_connect]
36 -1.259640 -2.480268 -137.844437 0.000000 -89.529778 70.769157 137.872513
37 -1.259640 -2.480268 -137.844437 0.000000 -89.538605 68.304619 137.872513
[Rope3_Seg01]
36 -0.000002 -0.000544 -0.000153 -130.587753 -2.205900 -79.014671 0.000565
37 -0.000002 -0.000557 -0.000153 -130.937576 5.307260 -80.819550 0.000577
[Rope3_Seg02]
36 139.999924 -0.000119 0.000060 0.183598 -3.725179 -2.246034 139.999924
37 139.999924 -0.000119 0.000060 0.069771 -2.910864 -2.290858 139.999924
[Rope3_Seg03]
36 139.999924 -0.000119 0.000119 0.154707 -2.724711 -4.351551 139.999924
37 139.999924 -0.000119 0.000119 0.154004 -2.581287 -4.123508 139.999924
[Rope3_Seg04]
36 139.999924 0.000119 0.000000 0.334386 -2.952875 -1.199273 139.999924
37 139.999924 0.000119 0.000000 0.111416 -2.444878 -2.360492 139.999924
[Rope3_Seg05]
36 139.999924 -0.000238 0.000060 1.103417 -5.246525 10.099298 139.999924
37 139.999924 -0.000238 0.000060 0.457984 -2.509176 8.825694 139.999924
[Rope3_Seg06]
36 139.999893 -0.000119 -0.000060 0.507107 -4.369235 8.855462 139.999893
37 139.999893 -0.000119 -0.000060 0.128349 -1.920716 7.810969 139.999893
[Rope3_Seg07]
36 139.999771 0.000060 -0.000119 0.181721 -3.322389 6.258473 139.999771
37 139.999771 0.000060 -0.000119 0.038013 -1.475170 4.864675 139.999771
[Rope3_Seg08]
36 139.999985 -0.000060 0.000000 0.235561 -1.866244 3.564713 139.999985
37 139.999985 -0.000060 0.000000 0.106650 -0.995928 3.290195 139.999985
[Rope3_Seg09]
36 90.185997 -0.000179 -0.000060 89.793228 -1.359877 -0.847183 90.185997
37 90.185997 -0.000179 -0.000060 89.793228 -1.359877 -0.847183 90.185997
[R_rear_hand01]
36 103.366196 -6.073594 -10.757982 -177.714203 24.565960 -73.910950 104.101845
37 103.366196 -6.073594 -10.757982 -177.714203 24.565960 -73.910950 104.101845
[R_rear_hand02]
36 100.509819 12.039542 -7.992327 -12.874829 36.868488 72.167213 101.543350
37 100.509819 12.039542 -7.992327 -12.874829 36.868488 72.167213 101.543350
[R_rear_hand03]
36 101.539970 5.215704 5.435467 71.484581 -71.816628 21.513813 101.819031
37 101.539970 5.215704 5.435467 71.484581 -71.816628 21.513813 101.819031
[Rope4_Seg01]
36 0.000000 -0.001073 -0.000286 47.147949 10.700933 -112.979996 0.001110
37 0.000000 -0.001102 -0.000290 46.588970 16.017344 -112.994812 0.001140
[Rope4_Seg02]
36 139.999985 0.000060 0.000119 0.278323 -0.018386 2.138266 139.999985
37 139.999985 0.000060 0.000119 0.256839 0.682675 2.970976 139.999985
[Rope4_Seg03]
36 139.999924 0.000000 -0.000238 0.451031 -0.402269 4.526601 139.999924
37 139.999924 0.000000 -0.000238 0.256717 1.039583 5.189055 139.999924
[Rope4_Seg04]
36 139.999985 0.000000 0.000119 0.454660 -1.575361 13.355507 139.999985
37 139.999985 0.000000 0.000119 -0.847759 1.497040 18.430445 139.999985
[Rope4_Seg05]
36 139.999802 -0.000060 -0.000119 -3.324013 13.467546 -28.651026 139.999802
37 139.999802 -0.000060 -0.000119 1.540561 6.931313 -21.816479 139.999802
[Rope4_Seg06]
36 139.999924 0.000000 0.000060 -0.244166 5.500646 -11.088724 139.999924
37 139.999924 0.000000 0.000060 0.670390 2.623197 -13.146335 139.999924
[Rope4_Seg07]
36 139.999802 0.000000 0.000000 0.136920 2.621957 -5.121965 139.999802
37 139.999802 0.000000 0.000000 0.235863 1.305404 -5.517537 139.999802
[Rope4_Seg08]
36 139.999924 0.000000 0.000119 -1.418365 0.774207 -1.526426 139.999924
37 139.999924 0.000000 0.000119 -1.427570 0.616602 -2.662312 139.999924
[Rope4_Seg09]
36 90.185791 0.000060 0.000060 -135.617828 2.228885 0.850567 90.185791
37 90.185791 0.000060 0.000060 -135.617828 2.228885 0.850567 90.185791
[L_rear_hand01]
36 101.696655 -8.392275 -7.654577 -12.874829 -36.868488 107.832764 102.329041
37 101.696655 -8.392275 -7.654577 -12.874829 -36.868488 107.832764 102.329041
[L_rear_hand02]
36 102.726799 -1.568258 5.773216 71.484581 71.816628 158.486160 102.900848
37 102.726799 -1.568258 5.773216 71.484581 71.816628 158.486160 102.900848
[L_rear_hand03]
36 104.552910 9.721220 -10.420293 -177.714203 -24.565960 -106.089035 105.519653
37 104.552910 9.721220 -10.420293 -177.714203 -24.565960 -106.089035 105.519653
